<svg id="visual" viewBox="0 0 900 600" width="900" height="600" xmlns="http://www.w3.org/2000/svg" xmlns:xlink="http://www.w3.org/1999/xlink" version="1.1"><g stroke-width="1" stroke-linejoin="bevel"><path d="M468 307L439 380L489 360Z" fill="#277297" stroke="#277297"></path><path d="M468 307L375 270L439 380Z" fill="#297ea6" stroke="#297ea6"></path><path d="M573 375L570 328L489 360Z" fill="#19435d" stroke="#19435d"></path><path d="M489 360L570 328L468 307Z" fill="#205a7a" stroke="#205a7a"></path><path d="M468 307L504 225L375 270Z" fill="#112e42" stroke="#112e42"></path><path d="M505 522L573 375L489 360Z" fill="#1d4e6b" stroke="#1d4e6b"></path><path d="M570 328L504 225L468 307Z" fill="#081a28" stroke="#081a28"></path><path d="M375 270L332 428L439 380Z" fill="#297ea6" stroke="#297ea6"></path><path d="M439 380L505 522L489 360Z" fill="#112e42" stroke="#112e42"></path><path d="M332 428L409 498L439 380Z" fill="#15384f" stroke="#15384f"></path><path d="M504 225L378 197L375 270Z" fill="#246688" stroke="#246688"></path><path d="M375 270L263 295L332 428Z" fill="#246688" stroke="#246688"></path><path d="M409 498L505 522L439 380Z" fill="#246688" stroke="#246688"></path><path d="M329 185L263 295L375 270Z" fill="#00101c" stroke="#00101c"></path><path d="M368 122L329 185L378 197Z" fill="#246688" stroke="#246688"></path><path d="M378 197L329 185L375 270Z" fill="#112e42" stroke="#112e42"></path><path d="M226 366L277 460L332 428Z" fill="#081a28" stroke="#081a28"></path><path d="M332 428L277 460L409 498Z" fill="#112e42" stroke="#112e42"></path><path d="M573 375L667 397L570 328Z" fill="#246688" stroke="#246688"></path><path d="M570 328L609 183L504 225Z" fill="#0c2435" stroke="#0c2435"></path><path d="M605 517L667 397L573 375Z" fill="#1d4e6b" stroke="#1d4e6b"></path><path d="M673 179L609 183L726 312Z" fill="#1d4e6b" stroke="#1d4e6b"></path><path d="M471 94L368 122L378 197Z" fill="#19435d" stroke="#19435d"></path><path d="M263 295L226 366L332 428Z" fill="#19435d" stroke="#19435d"></path><path d="M505 522L605 517L573 375Z" fill="#1d4e6b" stroke="#1d4e6b"></path><path d="M471 94L378 197L504 225Z" fill="#112e42" stroke="#112e42"></path><path d="M609 183L471 94L504 225Z" fill="#112e42" stroke="#112e42"></path><path d="M375 600L517 600L505 522Z" fill="#246688" stroke="#246688"></path><path d="M505 522L517 600L605 517Z" fill="#081a28" stroke="#081a28"></path><path d="M375 600L505 522L409 498Z" fill="#0c2435" stroke="#0c2435"></path><path d="M277 460L375 600L409 498Z" fill="#00101c" stroke="#00101c"></path><path d="M673 179L619 127L609 183Z" fill="#00101c" stroke="#00101c"></path><path d="M609 183L619 127L471 94Z" fill="#277297" stroke="#277297"></path><path d="M726 312L609 183L570 328Z" fill="#246688" stroke="#246688"></path><path d="M780 415L726 312L667 397Z" fill="#19435d" stroke="#19435d"></path><path d="M667 397L726 312L570 328Z" fill="#1d4e6b" stroke="#1d4e6b"></path><path d="M283 0L278 132L368 122Z" fill="#246688" stroke="#246688"></path><path d="M368 122L278 132L329 185Z" fill="#00101c" stroke="#00101c"></path><path d="M329 185L197 160L263 295Z" fill="#246688" stroke="#246688"></path><path d="M263 295L184 273L226 366Z" fill="#00101c" stroke="#00101c"></path><path d="M197 160L184 273L263 295Z" fill="#277297" stroke="#277297"></path><path d="M277 460L265 600L375 600Z" fill="#0c2435" stroke="#0c2435"></path><path d="M113 419L229 534L277 460Z" fill="#297ea6" stroke="#297ea6"></path><path d="M113 419L277 460L226 366Z" fill="#246688" stroke="#246688"></path><path d="M620 600L676 538L605 517Z" fill="#19435d" stroke="#19435d"></path><path d="M605 517L676 538L667 397Z" fill="#205a7a" stroke="#205a7a"></path><path d="M517 600L620 600L605 517Z" fill="#0c2435" stroke="#0c2435"></path><path d="M278 132L197 160L329 185Z" fill="#0c2435" stroke="#0c2435"></path><path d="M780 415L764 287L726 312Z" fill="#0c2435" stroke="#0c2435"></path><path d="M726 312L764 287L673 179Z" fill="#297ea6" stroke="#297ea6"></path><path d="M229 534L265 600L277 460Z" fill="#081a28" stroke="#081a28"></path><path d="M789 498L780 415L667 397Z" fill="#00101c" stroke="#00101c"></path><path d="M519 0L422 0L471 94Z" fill="#246688" stroke="#246688"></path><path d="M471 94L422 0L368 122Z" fill="#246688" stroke="#246688"></path><path d="M278 132L163 67L197 160Z" fill="#00101c" stroke="#00101c"></path><path d="M78 333L226 366L184 273Z" fill="#246688" stroke="#246688"></path><path d="M78 333L113 419L226 366Z" fill="#081a28" stroke="#081a28"></path><path d="M229 534L217 600L265 600Z" fill="#0c2435" stroke="#0c2435"></path><path d="M112 600L217 600L229 534Z" fill="#081a28" stroke="#081a28"></path><path d="M619 127L519 0L471 94Z" fill="#246688" stroke="#246688"></path><path d="M617 0L519 0L619 127Z" fill="#19435d" stroke="#19435d"></path><path d="M620 600L709 600L676 538Z" fill="#277297" stroke="#277297"></path><path d="M676 538L789 498L667 397Z" fill="#00101c" stroke="#00101c"></path><path d="M110 126L117 208L197 160Z" fill="#246688" stroke="#246688"></path><path d="M197 160L117 208L184 273Z" fill="#081a28" stroke="#081a28"></path><path d="M765 600L789 498L676 538Z" fill="#15384f" stroke="#15384f"></path><path d="M821 121L698 65L673 179Z" fill="#19435d" stroke="#19435d"></path><path d="M673 179L698 65L619 127Z" fill="#0c2435" stroke="#0c2435"></path><path d="M117 208L78 333L184 273Z" fill="#297ea6" stroke="#297ea6"></path><path d="M698 65L617 0L619 127Z" fill="#0c2435" stroke="#0c2435"></path><path d="M422 0L283 0L368 122Z" fill="#246688" stroke="#246688"></path><path d="M764 287L810 177L673 179Z" fill="#1d4e6b" stroke="#1d4e6b"></path><path d="M900 331L810 177L764 287Z" fill="#15384f" stroke="#15384f"></path><path d="M900 331L764 287L780 415Z" fill="#0c2435" stroke="#0c2435"></path><path d="M283 0L163 67L278 132Z" fill="#297ea6" stroke="#297ea6"></path><path d="M709 600L765 600L676 538Z" fill="#081a28" stroke="#081a28"></path><path d="M163 67L110 126L197 160Z" fill="#205a7a" stroke="#205a7a"></path><path d="M0 309L0 360L78 333Z" fill="#1d4e6b" stroke="#1d4e6b"></path><path d="M0 511L67 513L113 419Z" fill="#19435d" stroke="#19435d"></path><path d="M113 419L67 513L229 534Z" fill="#246688" stroke="#246688"></path><path d="M67 513L112 600L229 534Z" fill="#15384f" stroke="#15384f"></path><path d="M900 177L821 121L810 177Z" fill="#205a7a" stroke="#205a7a"></path><path d="M810 177L821 121L673 179Z" fill="#15384f" stroke="#15384f"></path><path d="M698 65L730 0L617 0Z" fill="#15384f" stroke="#15384f"></path><path d="M804 0L730 0L698 65Z" fill="#1d4e6b" stroke="#1d4e6b"></path><path d="M900 366L780 415L900 496Z" fill="#246688" stroke="#246688"></path><path d="M900 366L900 331L780 415Z" fill="#277297" stroke="#277297"></path><path d="M900 496L780 415L789 498Z" fill="#112e42" stroke="#112e42"></path><path d="M283 0L162 0L163 67Z" fill="#081a28" stroke="#081a28"></path><path d="M163 67L90 0L110 126Z" fill="#277297" stroke="#277297"></path><path d="M78 333L0 360L113 419Z" fill="#081a28" stroke="#081a28"></path><path d="M0 309L78 333L117 208Z" fill="#19435d" stroke="#19435d"></path><path d="M0 309L117 208L0 196Z" fill="#15384f" stroke="#15384f"></path><path d="M0 196L117 208L110 126Z" fill="#205a7a" stroke="#205a7a"></path><path d="M900 600L900 496L789 498Z" fill="#112e42" stroke="#112e42"></path><path d="M900 331L900 177L810 177Z" fill="#0c2435" stroke="#0c2435"></path><path d="M821 121L804 0L698 65Z" fill="#297ea6" stroke="#297ea6"></path><path d="M0 114L0 196L110 126Z" fill="#15384f" stroke="#15384f"></path><path d="M0 360L0 511L113 419Z" fill="#297ea6" stroke="#297ea6"></path><path d="M67 513L0 600L112 600Z" fill="#15384f" stroke="#15384f"></path><path d="M900 79L804 0L821 121Z" fill="#081a28" stroke="#081a28"></path><path d="M162 0L90 0L163 67Z" fill="#0c2435" stroke="#0c2435"></path><path d="M90 0L0 114L110 126Z" fill="#15384f" stroke="#15384f"></path><path d="M765 600L900 600L789 498Z" fill="#297ea6" stroke="#297ea6"></path><path d="M900 177L900 79L821 121Z" fill="#112e42" stroke="#112e42"></path><path d="M0 511L0 600L67 513Z" fill="#297ea6" stroke="#297ea6"></path><path d="M900 79L900 0L804 0Z" fill="#19435d" stroke="#19435d"></path><path d="M90 0L0 0L0 114Z" fill="#112e42" stroke="#112e42"></path></g></svg>